<svg width="48" height="48" viewBox="0 0 48 48" fill="none" xmlns="http://www.w3.org/2000/svg">
<circle cx="24" cy="24" r="24" fill="#171717"/>
<circle cx="24" cy="24" r="23.5" stroke="white" stroke-opacity="0.1"/>
<g opacity="0.5">
<path d="M30 18C29.8125 17.8125 29.5582 17.7072 29.293 17.7072C29.0278 17.7072 28.7735 17.8125 28.586 18L24 22.586L19.414 18C19.2265 17.8125 18.9722 17.7072 18.707 17.7072C18.4418 17.7072 18.1875 17.8125 18 18C17.8125 18.1875 17.7072 18.4418 17.7072 18.707C17.7072 18.9722 17.8125 19.2265 18 19.414L22.586 24L18 28.586C17.8125 28.7735 17.7072 29.0278 17.7072 29.293C17.7072 29.5582 17.8125 29.8125 18 30C18.1875 30.1875 18.4418 30.2928 18.707 30.2928C18.9722 30.2928 19.2265 30.1875 19.414 30L24 25.414L28.586 30C28.7735 30.1875 29.0278 30.2928 29.293 30.2928C29.5582 30.2928 29.8125 30.1875 30 30C30.1875 29.8125 30.2928 29.5582 30.2928 29.293C30.2928 29.0278 30.1875 28.7735 30 28.586L25.414 24L30 19.414C30.1875 19.2265 30.2928 18.9722 30.2928 18.707C30.2928 18.4418 30.1875 18.1875 30 18Z" fill="white"/>
</g>
</svg>
