<svg width="210" height="194" viewBox="0 0 210 194" fill="none" xmlns="http://www.w3.org/2000/svg">
<g filter="url(#filter0_d_1_631)">
<circle opacity="0.1" cx="105" cy="101" r="100" stroke="#4390B1" stroke-width="2"/>
<circle cx="105" cy="101" r="48" fill="#4390B1"/>
<circle opacity="0.5" cx="105" cy="101" r="60" stroke="#4390B1" stroke-width="2"/>
<circle opacity="0.25" cx="105" cy="101" r="78" stroke="#4390B1" stroke-width="2"/>
<path d="M105 86.75C102.377 86.75 100.25 88.8766 100.25 91.5V99.4167C100.25 102.04 102.377 104.167 105 104.167C107.623 104.167 109.75 102.04 109.75 99.4167V91.5C109.75 88.8766 107.623 86.75 105 86.75ZM106.583 113.58V116.042C106.583 116.916 105.874 117.625 105 117.625C104.126 117.625 103.417 116.916 103.417 116.042V113.58C96.2917 112.792 90.75 106.752 90.75 99.4167C90.75 98.5422 91.4589 97.8333 92.3333 97.8333C93.2078 97.8333 93.9167 98.5422 93.9167 99.4167C93.9167 105.538 98.8788 110.5 105 110.5C111.121 110.5 116.083 105.538 116.083 99.4167C116.083 98.5422 116.792 97.8333 117.667 97.8333C118.541 97.8333 119.25 98.5422 119.25 99.4167C119.25 106.752 113.708 112.792 106.583 113.58ZM105 83.5833C109.372 83.5833 112.917 87.1277 112.917 91.5V99.4167C112.917 103.789 109.372 107.333 105 107.333C100.628 107.333 97.0833 103.789 97.0833 99.4167V91.5C97.0833 87.1277 100.628 83.5833 105 83.5833Z" fill="#010101"/>
</g>
<defs>
<filter id="filter0_d_1_631" x="0" y="0" width="210" height="210" filterUnits="userSpaceOnUse" color-interpolation-filters="sRGB">
<feFlood flood-opacity="0" result="BackgroundImageFix"/>
<feColorMatrix in="SourceAlpha" type="matrix" values="0 0 0 0 0 0 0 0 0 0 0 0 0 0 0 0 0 0 127 0" result="hardAlpha"/>
<feOffset dy="4"/>
<feGaussianBlur stdDeviation="2"/>
<feComposite in2="hardAlpha" operator="out"/>
<feColorMatrix type="matrix" values="0 0 0 0 0 0 0 0 0 0 0 0 0 0 0 0 0 0 0.25 0"/>
<feBlend mode="normal" in2="BackgroundImageFix" result="effect1_dropShadow_1_631"/>
<feBlend mode="normal" in="SourceGraphic" in2="effect1_dropShadow_1_631" result="shape"/>
</filter>
</defs>
</svg>
