<svg width="40" height="40" viewBox="0 0 40 40" fill="none" xmlns="http://www.w3.org/2000/svg">
<circle cx="20" cy="20" r="20" fill="#4390B1"/>
<circle cx="20" cy="20" r="19.5" stroke="white" stroke-opacity="0.1"/>
<g opacity="0.7">
<path d="M26.6667 14.1667C27.1269 14.1667 27.5 14.5398 27.5 15C27.5 15.4603 27.1269 15.8334 26.6667 15.8334H13.3333C12.8731 15.8334 12.5 15.4603 12.5 15C12.5 14.5398 12.8731 14.1667 13.3333 14.1667H26.6667ZM26.6667 19.1667C27.1269 19.1667 27.5 19.5398 27.5 20C27.5 20.4603 27.1269 20.8334 26.6667 20.8334H13.3333C12.8731 20.8334 12.5 20.4603 12.5 20C12.5 19.5398 12.8731 19.1667 13.3333 19.1667H26.6667ZM26.6667 24.1667C27.1269 24.1667 27.5 24.5398 27.5 25C27.5 25.4603 27.1269 25.8334 26.6667 25.8334H13.3333C12.8731 25.8334 12.5 25.4603 12.5 25C12.5 24.5398 12.8731 24.1667 13.3333 24.1667H26.6667Z" fill="white"/>
</g>
</svg>
